# xmcd CD database file
#
# Track frame offsets:
#	150
#	9847
#	22377
#	32495
#	45175
#	55830
#	69561
#	79167
#	90198
#	100255
#	113086
#	128392
#	142724
#	158253
#	171159
#
# Disc length: 2483 seconds
#
# Revision: 0
# Processed by: cddbd v1.5.2PL0 Copyright (c) Steve Scherf et al.
# Submitted via: CDex 1.50
#
DISCID=9f09b10f
DTITLE=Carl Perkins - Everybody's Trying To Be My Baby
DYEAR=2003
DGENRE=Country
TTITLE0=This Old House
TTITLE1=We Did It In 54
TTITLE2=Daddy Sang Bass
TTITLE3=Take Me Back
TTITLE4=What Am I Living For?
TTITLE5=Country Soul
TTITLE6=All Mama's Children
TTITLE7=Dixie Fred
TTITLE8=Everybody's Trying To Be My Baby
TTITLE9=Honey's Don't
TTITLE10=I Don't Want To Fall In Love
TTITLE11=Redneck
TTITLE12=When You're 21
TTITLE13=Let The Jukebox Keep On Playing
TTITLE14=The Hunt Put On Us By You
EXTD=YEAR: 2003
EXTT0=
EXTT1=
EXTT2=
EXTT3=
EXTT4=
EXTT5=
EXTT6=
EXTT7=
EXTT8=
EXTT9=
EXTT10=
EXTT11=
EXTT12=
EXTT13=
EXTT14=
PLAYORDER=
